<svg width="32" height="32" viewBox="0 0 32 32" fill="none" xmlns="http://www.w3.org/2000/svg">
<path d="M13.333 17.3333C13.9056 18.0988 14.6362 18.7322 15.4751 19.1906C16.314 19.6489 17.2417 19.9215 18.1952 19.9898C19.1487 20.0581 20.1058 19.9205 21.0015 19.5864C21.8971 19.2523 22.7105 18.7294 23.3863 18.0533L27.3863 14.0533C28.6007 12.796 29.2727 11.112 29.2575 9.36399C29.2423 7.61601 28.5412 5.94392 27.3051 4.70787C26.0691 3.47182 24.397 2.77069 22.649 2.7555C20.901 2.74031 19.217 3.41227 17.9597 4.62666L15.6663 6.90666" stroke="black" stroke-width="2.66667" stroke-linecap="round" stroke-linejoin="round"/>
<path d="M18.6664 14.6667C18.0938 13.9012 17.3633 13.2678 16.5244 12.8094C15.6855 12.3511 14.7578 12.0785 13.8042 12.0102C12.8507 11.9419 11.8937 12.0795 10.998 12.4136C10.1023 12.7477 9.28896 13.2706 8.61311 13.9467L4.61311 17.9467C3.39872 19.204 2.72676 20.888 2.74195 22.636C2.75714 24.384 3.45827 26.0561 4.69432 27.2921C5.93038 28.5282 7.60246 29.2293 9.35044 29.2445C11.0984 29.2597 12.7824 28.5877 14.0398 27.3733L16.3198 25.0933" stroke="black" stroke-width="2.66667" stroke-linecap="round" stroke-linejoin="round"/>
</svg>
